<?xml version="1.0" encoding="UTF-8" standalone="no"?>

<svg width="294mm" height="294mm" xmlns="http://www.w3.org/2000/svg">
  <g id="cut">
    <rect fill="none" stroke="red" width="294mm" height="294mm" x="0" y="0" rx="4mm" ry="4mm" />

    <rect fill="none" stroke="red" width="37.7mm" height="37.7mm" x="2.15mm" y="2.15mm" rx="1.85mm" ry="1.85mm" />
    <rect fill="none" stroke="red" width="37.7mm" height="37.7mm" x="2.15mm" y="44.15mm" rx="1.85mm" ry="1.85mm" />
    <rect fill="none" stroke="red" width="37.7mm" height="37.7mm" x="2.15mm" y="86.15mm" rx="1.85mm" ry="1.85mm" />
    <rect fill="none" stroke="red" width="37.7mm" height="37.7mm" x="2.15mm" y="128.15mm" rx="1.85mm" ry="1.85mm" />
    <rect fill="none" stroke="red" width="37.7mm" height="37.7mm" x="2.15mm" y="170.15mm" rx="1.85mm" ry="1.85mm" />
    <rect fill="none" stroke="red" width="37.7mm" height="37.7mm" x="2.15mm" y="212.15mm" rx="1.85mm" ry="1.85mm" />
    <rect fill="none" stroke="red" width="37.7mm" height="37.7mm" x="2.15mm" y="254.15mm" rx="1.85mm" ry="1.85mm" />
    <rect fill="none" stroke="red" width="37.7mm" height="37.7mm" x="44.15mm" y="2.15mm" rx="1.85mm" ry="1.85mm" />
    <rect fill="none" stroke="red" width="37.7mm" height="37.7mm" x="44.15mm" y="44.15mm" rx="1.85mm" ry="1.85mm" />
    <rect fill="none" stroke="red" width="37.7mm" height="37.7mm" x="44.15mm" y="86.15mm" rx="1.85mm" ry="1.85mm" />
    <rect fill="none" stroke="red" width="37.7mm" height="37.7mm" x="44.15mm" y="128.15mm" rx="1.85mm" ry="1.85mm" />
    <rect fill="none" stroke="red" width="37.7mm" height="37.7mm" x="44.15mm" y="170.15mm" rx="1.85mm" ry="1.85mm" />
    <rect fill="none" stroke="red" width="37.7mm" height="37.7mm" x="44.15mm" y="212.15mm" rx="1.85mm" ry="1.85mm" />
    <rect fill="none" stroke="red" width="37.7mm" height="37.7mm" x="44.15mm" y="254.15mm" rx="1.85mm" ry="1.85mm" />
    <rect fill="none" stroke="red" width="37.7mm" height="37.7mm" x="86.15mm" y="2.15mm" rx="1.85mm" ry="1.85mm" />
    <rect fill="none" stroke="red" width="37.7mm" height="37.7mm" x="86.15mm" y="44.15mm" rx="1.85mm" ry="1.85mm" />
    <rect fill="none" stroke="red" width="37.7mm" height="37.7mm" x="86.15mm" y="86.15mm" rx="1.85mm" ry="1.85mm" />
    <rect fill="none" stroke="red" width="37.7mm" height="37.7mm" x="86.15mm" y="128.15mm" rx="1.85mm" ry="1.85mm" />
    <rect fill="none" stroke="red" width="37.7mm" height="37.7mm" x="86.15mm" y="170.15mm" rx="1.85mm" ry="1.85mm" />
    <rect fill="none" stroke="red" width="37.7mm" height="37.7mm" x="86.15mm" y="212.15mm" rx="1.85mm" ry="1.85mm" />
    <rect fill="none" stroke="red" width="37.7mm" height="37.7mm" x="86.15mm" y="254.15mm" rx="1.85mm" ry="1.85mm" />
    <rect fill="none" stroke="red" width="37.7mm" height="37.7mm" x="128.15mm" y="2.15mm" rx="1.85mm" ry="1.85mm" />
    <rect fill="none" stroke="red" width="37.7mm" height="37.7mm" x="128.15mm" y="44.15mm" rx="1.85mm" ry="1.85mm" />
    <rect fill="none" stroke="red" width="37.7mm" height="37.7mm" x="128.15mm" y="86.15mm" rx="1.85mm" ry="1.85mm" />
    <rect fill="none" stroke="red" width="37.7mm" height="37.7mm" x="128.15mm" y="128.15mm" rx="1.85mm" ry="1.85mm" />
    <rect fill="none" stroke="red" width="37.7mm" height="37.7mm" x="128.15mm" y="170.15mm" rx="1.85mm" ry="1.85mm" />
    <rect fill="none" stroke="red" width="37.7mm" height="37.7mm" x="128.15mm" y="212.15mm" rx="1.85mm" ry="1.85mm" />
    <rect fill="none" stroke="red" width="37.7mm" height="37.7mm" x="128.15mm" y="254.15mm" rx="1.85mm" ry="1.85mm" />
    <rect fill="none" stroke="red" width="37.7mm" height="37.7mm" x="170.15mm" y="2.15mm" rx="1.85mm" ry="1.85mm" />
    <rect fill="none" stroke="red" width="37.7mm" height="37.7mm" x="170.15mm" y="44.15mm" rx="1.85mm" ry="1.85mm" />
    <rect fill="none" stroke="red" width="37.7mm" height="37.7mm" x="170.15mm" y="86.15mm" rx="1.85mm" ry="1.85mm" />
    <rect fill="none" stroke="red" width="37.7mm" height="37.7mm" x="170.15mm" y="128.15mm" rx="1.85mm" ry="1.85mm" />
    <rect fill="none" stroke="red" width="37.7mm" height="37.7mm" x="170.15mm" y="170.15mm" rx="1.85mm" ry="1.85mm" />
    <rect fill="none" stroke="red" width="37.7mm" height="37.7mm" x="170.15mm" y="212.15mm" rx="1.85mm" ry="1.85mm" />
    <rect fill="none" stroke="red" width="37.7mm" height="37.7mm" x="170.15mm" y="254.15mm" rx="1.85mm" ry="1.85mm" />
    <rect fill="none" stroke="red" width="37.7mm" height="37.7mm" x="212.15mm" y="2.15mm" rx="1.85mm" ry="1.85mm" />
    <rect fill="none" stroke="red" width="37.7mm" height="37.7mm" x="212.15mm" y="44.15mm" rx="1.85mm" ry="1.85mm" />
    <rect fill="none" stroke="red" width="37.7mm" height="37.7mm" x="212.15mm" y="86.15mm" rx="1.85mm" ry="1.85mm" />
    <rect fill="none" stroke="red" width="37.7mm" height="37.7mm" x="212.15mm" y="128.15mm" rx="1.85mm" ry="1.85mm" />
    <rect fill="none" stroke="red" width="37.7mm" height="37.7mm" x="212.15mm" y="170.15mm" rx="1.85mm" ry="1.85mm" />
    <rect fill="none" stroke="red" width="37.7mm" height="37.7mm" x="212.15mm" y="212.15mm" rx="1.85mm" ry="1.85mm" />
    <rect fill="none" stroke="red" width="37.7mm" height="37.7mm" x="212.15mm" y="254.15mm" rx="1.85mm" ry="1.85mm" />
    <rect fill="none" stroke="red" width="37.7mm" height="37.7mm" x="254.15mm" y="2.15mm" rx="1.85mm" ry="1.85mm" />
    <rect fill="none" stroke="red" width="37.7mm" height="37.7mm" x="254.15mm" y="44.15mm" rx="1.85mm" ry="1.85mm" />
    <rect fill="none" stroke="red" width="37.7mm" height="37.7mm" x="254.15mm" y="86.15mm" rx="1.85mm" ry="1.85mm" />
    <rect fill="none" stroke="red" width="37.7mm" height="37.7mm" x="254.15mm" y="128.15mm" rx="1.85mm" ry="1.85mm" />
    <rect fill="none" stroke="red" width="37.7mm" height="37.7mm" x="254.15mm" y="170.15mm" rx="1.85mm" ry="1.85mm" />
    <rect fill="none" stroke="red" width="37.7mm" height="37.7mm" x="254.15mm" y="212.15mm" rx="1.85mm" ry="1.85mm" />
    <rect fill="none" stroke="red" width="37.7mm" height="37.7mm" x="254.15mm" y="254.15mm" rx="1.85mm" ry="1.85mm" />
  </g>
</svg>
